# xmcd CD database file
#
# Track frame offsets:
#	150
#	32565
#	52445
#	82970
#	98970
#	119585
#	152575
#	166665
#	189935
#	211790
#	242047
#	278404
#	301961
#
# Disc length: 4482 seconds
#
# Revision: 3
# Processed by: cddbd v1.5.1PL0 Copyright (c) Steve Scherf et al.
# Submitted via: CDex 1.51
#
DISCID=a111800d
DTITLE=Kai Winding and Carl Fontana's Cleveland Express - The Complete Ohio Sessions
DYEAR=1957
DGENRE=Jazz
TTITLE0=Blue Lou
TTITLE1=The Party's Over
TTITLE2=The Preacher
TTITLE3=The Surrey With the Fringe on Top
TTITLE4=Jive at Five
TTITLE5=The Blues
TTITLE6=Whistle While You Work
TTITLE7=You Don't Know What Love Is
TTITLE8=Mole Hill
TTITLE9=There'll Never Be Another You
TTITLE10=Jim and Andy's
TTITLE11=In a Sentimental Mood
TTITLE12=I Want to Be Happy
EXTD=YEAR: 1957
EXTT0=
EXTT1=
EXTT2=
EXTT3=
EXTT4=
EXTT5=
EXTT6=
EXTT7=
EXTT8=
EXTT9=
EXTT10=
EXTT11=
EXTT12=
PLAYORDER=
